{"title":"omayoun Shajarian - Na Fereshteam Na Sheytan (2014) [FLAC]","uid":10418469,"size":273537787,"categoryP":"audio","categoryS":"flac","magnet":"?xt=urn:btih:3f904ac55a7befb654e77dc402f75c8c12455113&amp;dn=omayoun+Shajarian+-+Na+Fereshteam+Na+Sheytan+%282014%29+%5BFLAC%5D&amp;tr=udp%3A%2F%2Ftracker.openbittorrent.com%3A80&amp;tr=udp%3A%2F%2Fopen.demonii.com%3A1337&amp;tr=udp%3A%2F%2Ftracker.coppersurfer.tk%3A6969&amp;tr=udp%3A%2F%2Fexodus.desync.com%3A6969","seeders":1,"leechers":0,"uploader":"amirhosein","files":1,"time":1403615626,"description":"Homayoun Shajarian / Na Fereshteam Na Sheytan\n\nRead mode               : Secure\nUtilize accurate stream : Yes\nDefeat audio cache      : Yes\nMake use of C2 pointers : No\n\nRead offset correction                      : 0\nOverread into Lead-In and Lead-Out          : No\nFill up missing offset samples with silence : Yes\nDelete leading and trailing silent blocks   : No\nNull samples used in CRC calculations       : Yes\nUsed interface                              : Native Win32 interface for Win NT &amp; 2000\nGap handling                                : Appended to previous track\n\nUsed output format              : User Defined Encoder\nSelected bitrate                : 1024 kBit/s\nQuality                         : High\nAdd ID3 tag                     : No\n\nTOC of the extracted CD\n\n     Track |   Start  |  Length  | Start sector | End sector \n    ---------------------------------------------------------\n        1  |  0:00.00 |  5:17.64 |         0    |    23838   \n        2  |  5:17.64 |  6:01.44 |     23839    |    50957   \n        3  | 11:19.33 |  5:33.56 |     50958    |    75988   \n        4  | 16:53.14 |  5:15.35 |     75989    |    99648   \n        5  | 22:08.49 |  5:31.58 |     99649    |   124531   \n        6  | 27:40.32 |  7:32.55 |    124532    |   158486   \n        7  | 35:13.12 |  5:22.39 |    158487    |   182675   \n        8  | 40:35.51 |  7:23.49 |    182676    |   215949   \n\n\nTracks:\n\n01 Chera Rafti\n02 Daroone Ayeneh\n03 Del Be Del\n04 Kouli\n05 Hame Hicham\n06 Chouni Bi Man\n07 Shatak\n08 Dar Hesare Shab","torrent":{"xt":"urn:btih:3f904ac55a7befb654e77dc402f75c8c12455113","amp;dn":"omayoun+Shajarian+-+Na+Fereshteam+Na+Sheytan+%282014%29+%5BFLAC%5D","amp;tr":["udp%3A%2F%2Ftracker.openbittorrent.com%3A80","udp%3A%2F%2Fopen.demonii.com%3A1337","udp%3A%2F%2Ftracker.coppersurfer.tk%3A6969","udp%3A%2F%2Fexodus.desync.com%3A6969"],"infoHash":"3f904ac55a7befb654e77dc402f75c8c12455113","infoHashBuffer":{"type":"Buffer","data":[63,144,74,197,90,123,239,182,84,231,125,196,2,247,92,140,18,69,81,19]},"announce":[],"urlList":[]}}